<?xml version="1.0" encoding="UTF-8"?> <svg xmlns="http://www.w3.org/2000/svg" viewBox="0 0 100.01 100.01"> <defs> <style>.cls-1{fill:#f1a7b6;}</style> </defs> <title>Ресурс 9</title> <g id="Слой_2" data-name="Слой 2"> <g id="Слой_1-2" data-name="Слой 1"> <path class="cls-1" d="M87,50c.88-.74,1.75-1.52,2.58-2.35,12.33-12.33,14-30.65,3.72-40.92S64.68-1.87,52.35,10.45c-.83.83-1.61,1.7-2.35,2.58-.74-.88-1.52-1.75-2.35-2.58C35.33-1.87,17-3.54,6.73,6.73s-8.61,28.59,3.72,40.92c.83.83,1.7,1.61,2.58,2.35-.88.74-1.75,1.52-2.58,2.35C-1.87,64.68-3.54,83,6.73,93.27s28.59,8.61,40.92-3.72c.83-.83,1.61-1.7,2.35-2.58.74.88,1.52,1.75,2.35,2.58,12.33,12.33,30.65,14,40.92,3.72s8.61-28.59-3.72-40.92C88.72,51.52,87.86,50.74,87,50Z"></path> </g> </g> </svg> 