<?xml version="1.0" encoding="UTF-8"?> <svg xmlns="http://www.w3.org/2000/svg" viewBox="0 0 206.67 194.12"> <defs> <style>.cls-1{fill:#fff;}.cls-2{fill:#3a3a3a;}</style> </defs> <title>Ресурс 19</title> <g id="Слой_2" data-name="Слой 2"> <g id="Слой_1-2" data-name="Слой 1"> <path class="cls-1" d="M84.46,178.23l2.41.39-1,6,6.47,1,1-6,2.42.39L93.5,194.12l-2.42-.39,1-6.11-6.47-1-1,6.11-2.41-.38Z"></path> <path class="cls-1" d="M73.45,174.73a5.11,5.11,0,0,1-.16,1.53,5.45,5.45,0,0,1,4.41-.37,5,5,0,0,1,2.9,2.24,3.86,3.86,0,0,1,.31,3.3,4,4,0,0,1-2.71,2.74,8,8,0,0,1-4.91-.36L71,183l-.36,1.06a2.74,2.74,0,0,0,.07,2.17,3.07,3.07,0,0,0,1.89,1.44,3.56,3.56,0,0,0,2.28.08,1.94,1.94,0,0,0,1.35-1.23l2.32.79a3.37,3.37,0,0,1-1.38,1.71,5.16,5.16,0,0,1-2.45.83,6.9,6.9,0,0,1-2.89-.37,5.64,5.64,0,0,1-3.26-2.41,4.44,4.44,0,0,1-.28-3.68l2.11-6.22a8,8,0,0,0,.53-3.12l.07-.2Zm3.24,3.06a4.29,4.29,0,0,0-2.25-.14,3.59,3.59,0,0,0-1.91,1l-.94,2.77,1.81.61q4.25,1.44,5.09-1a2.22,2.22,0,0,0-.15-1.94A2.94,2.94,0,0,0,76.69,177.79Z"></path> <path class="cls-1" d="M63.55,170.3l-7.65,12-4.7-3A8,8,0,0,1,48,176.17a3.27,3.27,0,0,1,.28-3.28,2.92,2.92,0,0,1,1.46-1.19,3.68,3.68,0,0,1,2.13-.09,3.88,3.88,0,0,1-1.12-2.11,3.08,3.08,0,0,1,.47-2.2,3.48,3.48,0,0,1,2.83-1.76,6.89,6.89,0,0,1,4,1.31Zm-6.46,5.63-2.66-1.69q-2.89-1.84-4-.15t1.63,3.49l2.82,1.79Zm1-1.65,2.3-3.63L57,168.49a3.82,3.82,0,0,0-2.24-.75,1.87,1.87,0,0,0-1.49.94q-1.15,1.8,1.5,3.49Z"></path> <path class="cls-1" d="M47.62,158.43A6.23,6.23,0,0,1,49.87,163a7.07,7.07,0,0,1-2,5l-.3.33a8.55,8.55,0,0,1-3.13,2.28,6.32,6.32,0,0,1-3.43.43,5.71,5.71,0,0,1-3-1.4,5.35,5.35,0,0,1-2-4.25,7.93,7.93,0,0,1,2.35-4.94l.68-.76,7.2,6.44a5.07,5.07,0,0,0,1.35-3.36,3.88,3.88,0,0,0-1.37-3,4.25,4.25,0,0,0-2-1.07,5.49,5.49,0,0,0-2.1,0l-.34-1.86A6,6,0,0,1,47.62,158.43Zm-8.3,9.73a3.26,3.26,0,0,0,2.56.85,5.22,5.22,0,0,0,2.93-1.42l-5.33-4.76-.12.14a4.65,4.65,0,0,0-1.17,2.81A3.06,3.06,0,0,0,39.32,168.17Z"></path> <path class="cls-1" d="M37.22,150.3A3.51,3.51,0,0,0,35.17,149a2.78,2.78,0,0,0-2.21.41l-1.46-1.79a4.41,4.41,0,0,1,2.34-.82,5.54,5.54,0,0,1,2.68.49A6,6,0,0,1,38.77,149a5.87,5.87,0,0,1,1.42,4.82,7.74,7.74,0,0,1-3,4.7l-.32.26a8.59,8.59,0,0,1-3.35,1.75,5.82,5.82,0,0,1-3.34-.11,6.24,6.24,0,0,1-2.83-2.05,5.72,5.72,0,0,1-1.41-4,5.14,5.14,0,0,1,1.82-3.67l1.46,1.79a3.37,3.37,0,0,0-1.1,2.25,3.26,3.26,0,0,0,.78,2.37,3.41,3.41,0,0,0,2.86,1.39,6.29,6.29,0,0,0,3.64-1.66l.36-.29a6.16,6.16,0,0,0,2.3-3.19A3.43,3.43,0,0,0,37.22,150.3Z"></path> <path class="cls-1" d="M24.68,145.86l-1.86-3.2a5.71,5.71,0,0,1-.83-4,4.24,4.24,0,0,1,2.2-2.91,4.36,4.36,0,0,1,3.69-.47A5.65,5.65,0,0,1,31,138.05l3,5.22-12.33,7.17-1.22-2.11Zm1.72-1,4.64-2.7L29.22,139a3,3,0,0,0-1.68-1.48,2.52,2.52,0,0,0-2,.32,2.67,2.67,0,0,0-1.31,1.61,2.79,2.79,0,0,0,.35,2.17Z"></path> <path class="cls-1" d="M21.92,121.23a3.51,3.51,0,0,0-1.42-2,2.78,2.78,0,0,0-2.21-.46l-.67-2.21a4.43,4.43,0,0,1,2.48.13,5.56,5.56,0,0,1,2.3,1.47,6,6,0,0,1,1.43,2.44,5.88,5.88,0,0,1-.51,5,7.75,7.75,0,0,1-4.59,3.2l-.39.12a8.58,8.58,0,0,1-3.77.35,5.81,5.81,0,0,1-3-1.37,6.24,6.24,0,0,1-1.84-3,5.72,5.72,0,0,1,.21-4.23A5.14,5.14,0,0,1,13,118l.67,2.21a3.36,3.36,0,0,0-1.87,1.66,3.27,3.27,0,0,0-.17,2.49,3.42,3.42,0,0,0,2.12,2.37,6.29,6.29,0,0,0,4-.15l.44-.13a6.14,6.14,0,0,0,3.34-2.08A3.43,3.43,0,0,0,21.92,121.23Z"></path> <path class="cls-1" d="M14.49,115.34a8.43,8.43,0,0,1-3.85-.32,6.15,6.15,0,0,1-2.86-1.94,6.25,6.25,0,0,1-1.34-3.21,6,6,0,0,1,1.38-4.94,7.76,7.76,0,0,1,5.08-2.49l.17,0a8.5,8.5,0,0,1,3.81.3,6.07,6.07,0,0,1,2.85,1.92,6.32,6.32,0,0,1,1.36,3.26,6,6,0,0,1-1.39,4.92,7.72,7.72,0,0,1-5.06,2.48Zm0-2.47a6.11,6.11,0,0,0,3.63-1.59,3.73,3.73,0,0,0-.79-5.85,6.68,6.68,0,0,0-4.19-.55,6.1,6.1,0,0,0-3.63,1.6,3.55,3.55,0,0,0-1.06,3.13,3.5,3.5,0,0,0,1.8,2.7A6.63,6.63,0,0,0,14.46,112.87Z"></path> <path class="cls-1" d="M13,99.88A9.91,9.91,0,0,1,7.44,98.2a4.35,4.35,0,0,1-1.83-3.9,4.72,4.72,0,0,1,.49-1.94L0,92l.13-2.44,6.18.34A4.77,4.77,0,0,1,6,87.74,4.36,4.36,0,0,1,8.21,84a10.49,10.49,0,0,1,6-1.06,8.24,8.24,0,0,1,4.93,1.65,4.46,4.46,0,0,1,1.65,3.89,5.17,5.17,0,0,1-.54,2.16l5.62.31-.13,2.44-5.58-.31a4.91,4.91,0,0,1,.27,2,4.45,4.45,0,0,1-2.06,3.67,8.38,8.38,0,0,1-5.16,1.1Zm.41-2.42a6.39,6.39,0,0,0,3.68-.66,2.81,2.81,0,0,0,1.37-2.39,3.85,3.85,0,0,0-.16-1.4L7.94,92.45a3.62,3.62,0,0,0-.3,1.34,2.75,2.75,0,0,0,1.3,2.55A9,9,0,0,0,13.38,97.47Zm.38-12.06a7.9,7.9,0,0,0-4.22.69,2.86,2.86,0,0,0-1.62,2.46A3.64,3.64,0,0,0,8.11,90l10.31.56a4.19,4.19,0,0,0,.3-1.46,2.94,2.94,0,0,0-1.13-2.6A6.74,6.74,0,0,0,13.76,85.41Z"></path> <path class="cls-1" d="M11.71,69.36,10.63,74l12,2.79L22,79.19l-12-2.79L9,81l-1.92-.45,2.71-11.6Z"></path> <path class="cls-1" d="M29,60.18a6.23,6.23,0,0,1-3.78,3.41A7.07,7.07,0,0,1,19.83,63l-.4-.2a8.55,8.55,0,0,1-3.05-2.39A6.33,6.33,0,0,1,15,57.24,5.72,5.72,0,0,1,15.54,54a5.35,5.35,0,0,1,3.54-3.09,7.94,7.94,0,0,1,5.39.91l.91.44-4.23,8.69a5.07,5.07,0,0,0,3.6.38,3.88,3.88,0,0,0,2.48-2.13,4.25,4.25,0,0,0,.48-2.2,5.52,5.52,0,0,0-.57-2l1.69-.83A6,6,0,0,1,29,60.18ZM17.35,54.86a3.25,3.25,0,0,0-.12,2.7A5.22,5.22,0,0,0,19.4,60l3.13-6.43-.17-.08a4.64,4.64,0,0,0-3-.36A3.06,3.06,0,0,0,17.35,54.86Z"></path> <path class="cls-1" d="M27.59,46.89l6.09,4.41-1.48,2L16.64,42.09l4.15-5.73A7.11,7.11,0,0,1,25,33.3a5.45,5.45,0,0,1,4.5,1.05A5.38,5.38,0,0,1,32,38.29a7.42,7.42,0,0,1-1.71,4.94Zm-1.68-1.21L28.58,42a4.55,4.55,0,0,0,1-3.08A3.5,3.5,0,0,0,28,36.41a3.63,3.63,0,0,0-2.86-.74,4.26,4.26,0,0,0-2.61,1.78l-2.75,3.8Z"></path> <path class="cls-1" d="M35.84,36.39a8.42,8.42,0,0,1-2-3.29,6.16,6.16,0,0,1-.14-3.45,6.24,6.24,0,0,1,1.78-3,6,6,0,0,1,4.79-1.82,7.76,7.76,0,0,1,5,2.61l.12.12a8.52,8.52,0,0,1,2,3.24,6.05,6.05,0,0,1,.15,3.44,6.3,6.3,0,0,1-1.81,3A6,6,0,0,1,41,39.1a7.72,7.72,0,0,1-5-2.59Zm2-1.49a6.1,6.1,0,0,0,3.44,2,3.73,3.73,0,0,0,4.23-4.11,6.69,6.69,0,0,0-2-3.7,6.09,6.09,0,0,0-3.44-2,3.54,3.54,0,0,0-3.14,1,3.5,3.5,0,0,0-1.1,3.06A6.62,6.62,0,0,0,37.81,34.89Z"></path> <path class="cls-1" d="M55.51,26.79a3.51,3.51,0,0,0,1.43-1.95,2.78,2.78,0,0,0-.23-2.24l1.9-1.31a4.44,4.44,0,0,1,.63,2.4,5.56,5.56,0,0,1-.71,2.63,6,6,0,0,1-1.89,2.11,5.88,5.88,0,0,1-4.92,1,7.75,7.75,0,0,1-4.44-3.4l-.23-.34a8.59,8.59,0,0,1-1.48-3.48A5.82,5.82,0,0,1,46,18.93a6.24,6.24,0,0,1,2.27-2.66,5.72,5.72,0,0,1,4.1-1.08,5.14,5.14,0,0,1,3.51,2.11l-1.9,1.31a3.37,3.37,0,0,0-2.16-1.27,3.26,3.26,0,0,0-2.42.59,3.41,3.41,0,0,0-1.61,2.74,6.29,6.29,0,0,0,1.36,3.76l.26.38a6.16,6.16,0,0,0,3,2.55A3.43,3.43,0,0,0,55.51,26.79Z"></path> <path class="cls-1" d="M59.37,11.86a5.19,5.19,0,0,1,3-3.61q4.08-1.94,6.31,2.64l4.05,8.51-2.2,1-4.06-8.52a3.28,3.28,0,0,0-1.62-1.75,2.83,2.83,0,0,0-2.26.26,3.53,3.53,0,0,0-1.61,1.47,4.31,4.31,0,0,0-.55,2.1l4.37,9.18-2.2,1L53.85,5.95l2.2-1Z"></path> <path class="cls-1" d="M72.85.75,73.92,4l2.53-.82L77,5l-2.53.82,2.74,8.42A2,2,0,0,0,78,15.36a1.5,1.5,0,0,0,1.29,0,6,6,0,0,0,1.05-.51l.61,1.87a7.08,7.08,0,0,1-1.7.83,3,3,0,0,1-2.65-.18A4.24,4.24,0,0,1,74.92,15L72.18,6.58l-2.47.8-.58-1.79,2.47-.8L70.53,1.5Z"></path> <path class="cls-1" d="M91.26,14.58a5.08,5.08,0,0,1-.61-1.41A5.45,5.45,0,0,1,87,15.64a5,5,0,0,1-3.62-.54,3.87,3.87,0,0,1-1.88-2.73,4,4,0,0,1,1-3.71A8,8,0,0,1,87,6.58l2.33-.43L89.09,5A2.74,2.74,0,0,0,88,3.18a3.07,3.07,0,0,0-2.35-.33,3.56,3.56,0,0,0-2,1A2,2,0,0,0,83,5.63l-2.41.45A3.37,3.37,0,0,1,81,3.91,5.18,5.18,0,0,1,82.7,2,6.93,6.93,0,0,1,85.39.89a5.64,5.64,0,0,1,4,.5,4.44,4.44,0,0,1,2,3.07l1.21,6.45a8,8,0,0,0,1.07,3l0,.21Zm-4.32-1.08a4.29,4.29,0,0,0,2-1,3.58,3.58,0,0,0,1.18-1.79l-.54-2.88-1.88.35q-4.41.82-3.92,3.4a2.22,2.22,0,0,0,1.08,1.62A3,3,0,0,0,86.94,13.49Z"></path> <path class="cls-2" d="M123.72,16.05l-2.4-.43,1.07-6-6.45-1.15-1.07,6L112.46,14,115,0l2.41.43-1.09,6.09,6.45,1.15,1.08-6.09,2.4.43Z"></path> <path class="cls-2" d="M134.67,19.74a5.1,5.1,0,0,1,.18-1.53,5.44,5.44,0,0,1-4.42.29,5,5,0,0,1-2.86-2.29,3.86,3.86,0,0,1-.25-3.3,4,4,0,0,1,2.76-2.69,8,8,0,0,1,4.9.45l2.23.8.38-1.06a2.74,2.74,0,0,0,0-2.17,3.07,3.07,0,0,0-1.87-1.47,3.56,3.56,0,0,0-2.28-.12A1.94,1.94,0,0,0,132,7.85L129.74,7a3.36,3.36,0,0,1,1.41-1.69,5.2,5.2,0,0,1,2.47-.79A6.91,6.91,0,0,1,136.5,5a5.63,5.63,0,0,1,3.22,2.46,4.45,4.45,0,0,1,.22,3.68l-2.21,6.18a8,8,0,0,0-.58,3.11l-.07.2Zm-3.19-3.12a4.29,4.29,0,0,0,2.25.18,3.59,3.59,0,0,0,1.92-1l1-2.75-1.8-.64q-4.22-1.51-5.1,1a2.22,2.22,0,0,0,.12,1.95A2.94,2.94,0,0,0,131.48,16.63Z"></path> <path class="cls-2" d="M144.49,24.34l7.85-11.91L157,15.49a8,8,0,0,1,3.1,3.24,3.27,3.27,0,0,1-.34,3.28,2.92,2.92,0,0,1-1.48,1.17,3.68,3.68,0,0,1-2.13.05,3.87,3.87,0,0,1,1.08,2.13,3.07,3.07,0,0,1-.51,2.19,3.48,3.48,0,0,1-2.86,1.71,6.89,6.89,0,0,1-4-1.38ZM150,20.45,147.61,24,151,26.26a3.81,3.81,0,0,0,2.22.79,1.87,1.87,0,0,0,1.51-.91q1.17-1.78-1.44-3.51ZM151,18.82l2.63,1.73q2.86,1.89,4,.21t-1.57-3.51l-2.78-1.84Z"></path> <path class="cls-2" d="M160.22,36.49a6.23,6.23,0,0,1-2.16-4.61,7.07,7.07,0,0,1,2.13-5l.31-.33a8.58,8.58,0,0,1,3.17-2.23A6.33,6.33,0,0,1,167.1,24a5.69,5.69,0,0,1,3,1.46A5.34,5.34,0,0,1,172,29.73a7.93,7.93,0,0,1-2.44,4.9l-.69.75-7.08-6.57a5.07,5.07,0,0,0-1.41,3.34,3.87,3.87,0,0,0,1.32,3,4.25,4.25,0,0,0,2,1.1,5.51,5.51,0,0,0,2.1,0l.3,1.86A6,6,0,0,1,160.22,36.49Zm8.47-9.58a3.25,3.25,0,0,0-2.55-.9,5.21,5.21,0,0,0-3,1.37l5.24,4.86.13-.14a4.65,4.65,0,0,0,1.22-2.79A3.06,3.06,0,0,0,168.7,26.91Z"></path> <path class="cls-2" d="M170.46,44.79a3.52,3.52,0,0,0,2,1.3,2.79,2.79,0,0,0,2.22-.37l1.43,1.81a4.42,4.42,0,0,1-2.35.78,5.57,5.57,0,0,1-2.67-.54A6,6,0,0,1,168.9,46a5.87,5.87,0,0,1-1.34-4.84,7.74,7.74,0,0,1,3.12-4.64l.32-.25a8.59,8.59,0,0,1,3.38-1.69,5.83,5.83,0,0,1,3.34.17,6.23,6.23,0,0,1,2.8,2.1,5.71,5.71,0,0,1,1.34,4A5.13,5.13,0,0,1,180,44.52l-1.43-1.81a3.36,3.36,0,0,0,1.14-2.23,3.26,3.26,0,0,0-.74-2.38,3.41,3.41,0,0,0-2.83-1.43,6.29,6.29,0,0,0-3.67,1.59l-.36.29a6.17,6.17,0,0,0-2.36,3.15A3.44,3.44,0,0,0,170.46,44.79Z"></path> <path class="cls-2" d="M182.91,49.45l1.81,3.24a5.71,5.71,0,0,1,.76,4,4.25,4.25,0,0,1-2.25,2.87,4.37,4.37,0,0,1-3.7.4,5.65,5.65,0,0,1-3-2.78l-2.94-5.27,12.46-7,1.19,2.13Zm-1.74,1L176.49,53l1.77,3.17a3,3,0,0,0,1.65,1.51,2.52,2.52,0,0,0,2.05-.29,2.68,2.68,0,0,0,1.34-1.59,2.8,2.8,0,0,0-.31-2.17Z"></path> <path class="cls-2" d="M185.26,74.13a3.51,3.51,0,0,0,1.39,2,2.78,2.78,0,0,0,2.2.5l.63,2.22a4.42,4.42,0,0,1-2.48-.17,5.55,5.55,0,0,1-2.27-1.51,6,6,0,0,1-1.39-2.46,5.87,5.87,0,0,1,.6-5,7.74,7.74,0,0,1,4.64-3.12l.39-.11a8.6,8.6,0,0,1,3.77-.28,5.81,5.81,0,0,1,3,1.42,6.25,6.25,0,0,1,1.79,3,5.71,5.71,0,0,1-.29,4.23,5.13,5.13,0,0,1-3.12,2.65l-.63-2.22a3.38,3.38,0,0,0,1.9-1.63,3.26,3.26,0,0,0,.22-2.48,3.42,3.42,0,0,0-2.08-2.4,6.29,6.29,0,0,0-4,.08l-.44.13a6.16,6.16,0,0,0-3.37,2A3.43,3.43,0,0,0,185.26,74.13Z"></path> <path class="cls-2" d="M192.59,80.15a8.43,8.43,0,0,1,3.84.39,6.14,6.14,0,0,1,2.83,2,6.22,6.22,0,0,1,1.29,3.23,6,6,0,0,1-1.47,4.91,7.76,7.76,0,0,1-5.13,2.4l-.17,0a8.49,8.49,0,0,1-3.8-.37,6.06,6.06,0,0,1-2.82-2,6.31,6.31,0,0,1-1.3-3.28,6,6,0,0,1,1.47-4.9,7.72,7.72,0,0,1,5.1-2.39Zm0,2.47a6.11,6.11,0,0,0-3.66,1.53,3.73,3.73,0,0,0,.69,5.86,6.68,6.68,0,0,0,4.18.62,6.09,6.09,0,0,0,3.65-1.54A3.54,3.54,0,0,0,198.55,86a3.5,3.5,0,0,0-1.76-2.73A6.62,6.62,0,0,0,192.58,82.62Z"></path> <path class="cls-2" d="M193.9,95.66a9.9,9.9,0,0,1,5.49,1.83,4.35,4.35,0,0,1,1.73,3.95,4.73,4.73,0,0,1-.54,1.93l6.08.49-.2,2.43-6.16-.5a4.77,4.77,0,0,1,.29,2.19,4.36,4.36,0,0,1-2.34,3.63,10.49,10.49,0,0,1-6,.91,8.23,8.23,0,0,1-4.88-1.77,4.46,4.46,0,0,1-1.55-3.93,5.17,5.17,0,0,1,.6-2.15l-5.61-.45.2-2.43,5.57.45a4.92,4.92,0,0,1-.22-2,4.44,4.44,0,0,1,2.16-3.62,8.37,8.37,0,0,1,5.18-1Zm-1.16,14.46a7.93,7.93,0,0,0,4.23-.59,2.86,2.86,0,0,0,1.68-2.42,3.68,3.68,0,0,0-.15-1.47l-10.29-.83a4.21,4.21,0,0,0-.34,1.45,2.94,2.94,0,0,0,1.06,2.63A6.74,6.74,0,0,0,192.74,110.12Zm.69-12a6.4,6.4,0,0,0-3.7.56A2.81,2.81,0,0,0,188.3,101a3.83,3.83,0,0,0,.13,1.4l10.32.83a3.64,3.64,0,0,0,.33-1.34,2.75,2.75,0,0,0-1.23-2.59A9,9,0,0,0,193.43,98.07Z"></path> <path class="cls-2" d="M194.56,126.15l1.17-4.64-11.92-3,.6-2.37,11.92,3,1.15-4.55,1.92.48-2.91,11.56Z"></path> <path class="cls-2" d="M177.13,135a6.24,6.24,0,0,1,3.83-3.35,7.07,7.07,0,0,1,5.37.68l.4.2a8.56,8.56,0,0,1,3,2.44,6.34,6.34,0,0,1,1.3,3.2,5.71,5.71,0,0,1-.59,3.24,5.34,5.34,0,0,1-3.59,3,7.93,7.93,0,0,1-5.38-1l-.91-.46,4.37-8.62a5.07,5.07,0,0,0-3.6-.44,3.88,3.88,0,0,0-2.52,2.09,4.24,4.24,0,0,0-.52,2.19,5.48,5.48,0,0,0,.54,2l-1.71.8A6,6,0,0,1,177.13,135Zm11.54,5.52a3.26,3.26,0,0,0,.17-2.7,5.23,5.23,0,0,0-2.13-2.47l-3.23,6.37.16.08a4.65,4.65,0,0,0,3,.41A3.06,3.06,0,0,0,188.68,140.56Z"></path> <path class="cls-2" d="M178.29,148.37l-6-4.51,1.52-2,15.35,11.53L184.89,159a7.11,7.11,0,0,1-4.25,3,5.45,5.45,0,0,1-4.48-1.13,5.38,5.38,0,0,1-2.39-4,7.44,7.44,0,0,1,1.8-4.91Zm1.66,1.24-2.73,3.64a4.55,4.55,0,0,0-1.1,3.06,3.5,3.5,0,0,0,1.56,2.53,3.62,3.62,0,0,0,2.85.79,4.26,4.26,0,0,0,2.64-1.73l2.82-3.75Z"></path> <path class="cls-2" d="M169.86,158.72a8.43,8.43,0,0,1,2,3.32,6.14,6.14,0,0,1,.08,3.45,6.25,6.25,0,0,1-1.84,3,6,6,0,0,1-4.83,1.73,7.76,7.76,0,0,1-5-2.7l-.12-.13a8.5,8.5,0,0,1-2-3.28,6.06,6.06,0,0,1-.09-3.44,6.33,6.33,0,0,1,1.87-3,6,6,0,0,1,4.81-1.72,7.72,7.72,0,0,1,5,2.68Zm-2,1.46a6.1,6.1,0,0,0-3.4-2,3.73,3.73,0,0,0-4.31,4,6.7,6.7,0,0,0,2,3.73,6.1,6.1,0,0,0,3.41,2,3.54,3.54,0,0,0,3.16-1,3.5,3.5,0,0,0,1.15-3A6.62,6.62,0,0,0,167.86,160.18Z"></path> <path class="cls-2" d="M150,168a3.51,3.51,0,0,0-1.46,1.92,2.78,2.78,0,0,0,.19,2.25l-1.92,1.28a4.4,4.4,0,0,1-.59-2.41,5.58,5.58,0,0,1,.75-2.62,6,6,0,0,1,1.92-2.07,5.87,5.87,0,0,1,4.94-.95,7.74,7.74,0,0,1,4.38,3.48l.23.34a8.58,8.58,0,0,1,1.41,3.51,5.81,5.81,0,0,1-.43,3.31,6.24,6.24,0,0,1-2.32,2.62,5.72,5.72,0,0,1-4.12,1,5.14,5.14,0,0,1-3.48-2.17l1.92-1.28a3.36,3.36,0,0,0,2.13,1.31,3.27,3.27,0,0,0,2.43-.55,3.42,3.42,0,0,0,1.66-2.71,6.28,6.28,0,0,0-1.29-3.79l-.25-.38a6.17,6.17,0,0,0-2.95-2.6A3.43,3.43,0,0,0,150,168Z"></path> <path class="cls-2" d="M145.92,182.81a5.18,5.18,0,0,1-3,3.56q-4.11,1.87-6.27-2.75L132.73,175l2.22-1,3.91,8.59a3.29,3.29,0,0,0,1.59,1.78,2.83,2.83,0,0,0,2.27-.22,3.54,3.54,0,0,0,1.63-1.44,4.3,4.3,0,0,0,.58-2.09l-4.21-9.25,2.22-1,8.39,18.43-2.22,1Z"></path> <path class="cls-2" d="M132.22,193.7l-1-3.3-2.55.78-.55-1.8,2.55-.78-2.59-8.47a2,2,0,0,0-.72-1.13,1.5,1.5,0,0,0-1.29-.05,5.9,5.9,0,0,0-1.06.49l-.58-1.88a7.14,7.14,0,0,1,1.71-.8,3,3,0,0,1,2.65.22,4.24,4.24,0,0,1,1.62,2.44l2.59,8.46,2.48-.76.55,1.8-2.48.76,1,3.3Z"></path> <path class="cls-2" d="M114,179.56a5.11,5.11,0,0,1,.59,1.42,5.44,5.44,0,0,1,3.71-2.42,5,5,0,0,1,3.61.6,3.86,3.86,0,0,1,1.84,2.76,4,4,0,0,1-1.09,3.69,8,8,0,0,1-4.49,2l-2.34.39.19,1.1a2.75,2.75,0,0,0,1.09,1.88,3.07,3.07,0,0,0,2.35.37,3.55,3.55,0,0,0,2-1,1.94,1.94,0,0,0,.61-1.72l2.42-.41a3.36,3.36,0,0,1-.4,2.16,5.18,5.18,0,0,1-1.77,1.9,6.92,6.92,0,0,1-2.72,1,5.65,5.65,0,0,1-4-.57,4.45,4.45,0,0,1-2-3.11l-1.09-6.47a8.06,8.06,0,0,0-1-3l0-.21Zm4.3,1.16a4.29,4.29,0,0,0-2,.95,3.59,3.59,0,0,0-1.21,1.77l.49,2.89,1.89-.32q4.42-.75,4-3.33a2.22,2.22,0,0,0-1.05-1.64A3,3,0,0,0,118.34,180.72Z"></path> </g> </g> </svg> 