<?xml version="1.0" encoding="UTF-8"?> <svg xmlns="http://www.w3.org/2000/svg" viewBox="0 0 100.01 100.01"> <defs> <style>.cls-1{fill:#48d2b0;}</style> </defs> <title>Ресурс 29</title> <g id="Слой_2" data-name="Слой 2"> <g id="Слой_1-2" data-name="Слой 1"> <path class="cls-1" d="M80,52.84h.07s-5.71-.49-5.71-2.83,5.71-2.83,5.71-2.83h0c7.9-1,15.17-3.22,17.93-8.05,6.28-11-2.8-23.41-16.31-20.76C84.31,4.83,71.89-4.25,60.9,2c-5,2.85-7.24,10.52-8.15,18.73-.22,1.52-.91,5-2.74,5s-2.58-3.61-2.76-5.09l0-.39c0-.14,0-.23,0-.23v0c-1-7.94-3.21-15.26-8.07-18-11-6.28-23.41,2.8-20.76,16.31C4.83,15.7-4.25,28.12,2,39.11,4.83,44,12.22,46.25,20.22,47.19l-.12,0s5.71.49,5.71,2.83c0,1.59-2.45,2.31-4.14,2.62C13.13,53.49,5,55.72,2,60.9c-6.28,11,2.8,23.41,16.31,20.76C15.7,95.18,28.12,104.26,39.11,98,44,95.2,46.22,87.9,47.17,80V80s.49-5.71,2.83-5.71c1.8,0,2.49,3.17,2.72,4.78,0,.31.07.61.11.92h0c1,7.91,3.22,15.18,8.06,17.94,11,6.28,23.41-2.8,20.76-16.31C95.18,84.31,104.26,71.89,98,60.9,95.21,56.06,87.92,53.8,80,52.84ZM50.06,50h.07v.07h-.07Z"></path> </g> </g> </svg> 