<?xml version="1.0" encoding="UTF-8"?> <svg xmlns="http://www.w3.org/2000/svg" viewBox="0 0 99.92 99.92"> <defs> <style>.cls-1{fill:#aee7e1;}</style> </defs> <title>Ресурс 13</title> <g id="Слой_2" data-name="Слой 2"> <g id="Слой_1-2" data-name="Слой 1"> <path class="cls-1" d="M72.32,91.4h0a4.84,4.84,0,0,0-8.26,3.49h0a4.84,4.84,0,0,1-9.3,1.92h0a4.84,4.84,0,0,0-9,.06h0a4.84,4.84,0,0,1-9.33-1.79h0a4.84,4.84,0,0,0-8.3-3.37h0a4.84,4.84,0,0,1-7.93-5.22h0a4.84,4.84,0,0,0-6.38-6.29h0a4.84,4.84,0,0,1-5.33-7.86h0A4.84,4.84,0,0,0,5,64.06H5a4.84,4.84,0,0,1-1.92-9.3h0a4.84,4.84,0,0,0-.06-9h0a4.84,4.84,0,0,1,1.79-9.33h0a4.84,4.84,0,0,0,3.37-8.3h0a4.84,4.84,0,0,1,5.22-7.93h0a4.84,4.84,0,0,0,6.29-6.38h0A4.84,4.84,0,0,1,27.6,8.52h0A4.84,4.84,0,0,0,35.86,5h0a4.84,4.84,0,0,1,9.3-1.92h0a4.84,4.84,0,0,0,9-.06h0a4.84,4.84,0,0,1,9.33,1.79h0a4.84,4.84,0,0,0,8.3,3.37h0a4.84,4.84,0,0,1,7.93,5.22h0a4.84,4.84,0,0,0,6.38,6.29h0A4.84,4.84,0,0,1,91.4,27.6h0a4.84,4.84,0,0,0,3.49,8.26h0a4.84,4.84,0,0,1,1.92,9.3h0a4.84,4.84,0,0,0,.06,9h0a4.84,4.84,0,0,1-1.79,9.33h0a4.84,4.84,0,0,0-3.37,8.3h0a4.84,4.84,0,0,1-5.22,7.93h0a4.84,4.84,0,0,0-6.29,6.38h0A4.84,4.84,0,0,1,72.32,91.4Z"></path> </g> </g> </svg> 