<?xml version="1.0" encoding="UTF-8"?> <svg xmlns="http://www.w3.org/2000/svg" viewBox="0 0 101.83 100.01"> <defs> <style>.cls-1{fill:#af7ac5;}</style> </defs> <title>Ресурс 6</title> <g id="Слой_2" data-name="Слой 2"> <g id="Слой_1-2" data-name="Слой 1"> <path class="cls-1" d="M47.2,7.14l4.66,24.13L26.33,24.51,33.09,50,9,45.38c1.64,12,37.24,83.75,79.62,41.37S59.22,8.78,47.2,7.14Z"></path> <line class="cls-1" x1="12.29" y1="12.29" x2="20.99" y2="20.99"></line> <path class="cls-1" d="M15.19,9.39,21,21l-11.6-5.8a4.32,4.32,0,1,1,5.8-5.8Z"></path> <line class="cls-1" x1="5.51" y1="30.97" x2="16.17" y2="37.12"></line> <path class="cls-1" d="M7.56,27.42l8.61,9.71L3.46,34.52a4.32,4.32,0,1,1,4.1-7.11Z"></path> <line class="cls-1" x1="30.97" y1="5.51" x2="37.12" y2="16.17"></line> <path class="cls-1" d="M34.52,3.46l2.6,12.71L27.42,7.56a4.32,4.32,0,1,1,7.11-4.1Z"></path> </g> </g> </svg> 