<?xml version="1.0" encoding="UTF-8"?> <svg xmlns="http://www.w3.org/2000/svg" viewBox="0 0 100.11 100.12"> <defs> <style>.cls-1{fill:#a157c4;}</style> </defs> <title>Ресурс 27</title> <g id="Слой_2" data-name="Слой 2"> <g id="Слой_1-2" data-name="Слой 1"> <path class="cls-1" d="M89.35,37.81h0l-.11-.11c-.6-.68-1.22-1.35-1.86-2l-1.56-1.56,0,0L82.33,30.7l0,0L68.65,17l-.12.12A7.3,7.3,0,0,0,57.74,15.4l-4.28-5.29a6.09,6.09,0,1,0-1.58,1.28l4.47,5.53a7.3,7.3,0,0,0,2.08,10.26l-.24.24a7.29,7.29,0,0,0-11-1.5l-10-11.12a6.09,6.09,0,1,0-1.51,1.36L45.87,27.48a7.3,7.3,0,0,0,2.22,10l-.24.24a7.29,7.29,0,0,0-10.54-1.87L23.89,22.46a6.09,6.09,0,1,0-1.44,1.44L35.88,37.32a7.29,7.29,0,0,0,1.87,10.54l-.24.24a7.3,7.3,0,0,0-10-2.22L16.16,35.68a6.09,6.09,0,1,0-1.36,1.51l11.12,10a7.29,7.29,0,0,0,1.5,11l-.24.24a7.3,7.3,0,0,0-10.26-2.07l-5.53-4.47a6.09,6.09,0,1,0-1.28,1.58l5.29,4.28a7.3,7.3,0,0,0,1.68,10.79l-.12.12L27.09,78.78h0l3.6,3.6h0l3.47,3.45,0,0,1.54,1.54c.41.41.82.8,1.24,1.18l.1.1h0c15.81,14.57,39.4,15.4,53.21,1.59C103.84,76.65,103.24,53.61,89.35,37.81Z"></path> </g> </g> </svg> 